<svg xmlns="http://www.w3.org/2000/svg">
  <path xmlns="http://www.w3.org/2000/svg" d="M29.2 0v18h-18V0H0v47.7h11.2V27.5h18v20.2h11.3V0zM101.3 0H90.1l-.1.3-18 47.4h11.4l3.7-10.4H104l3.5 10.4h11.7L101.3 0zM90.1 28.7l5.5-15.5 5.3 15.5H90.1zM163.2 47c-1.7-2.4-1.7-7.9-1.9-10.9-.3-4.4-1.6-9.3-6.2-11 4.7-2.3 6.8-6.5 6.8-11.7 0-3.7-1.4-7-3.8-9.4-2.5-2.4-6-3.9-10.3-3.9h-25.7v47.7h11.2V29.4h9.8c5 .1 6.6 1.9 7.4 6.7.5 3.7.4 8.2 1.7 11.3l.1.3h11.5l-.6-.7zm-19.1-25.8h-10.8V8.9h10.8c4.5.1 6.6 1.7 6.6 6 0 4.6-2.1 6.2-6.6 6.3zM164.6 0v9.6h14v38.1h11.2V9.6h14V0zM48.3 17.3c-1.5 1.5-1.5 4 0 5.5l1.1 1.1-1.1 1.1c-1.5 1.5-1.5 4 0 5.5s4 1.5 5.5 0l1.1-1.1 5.5-5.5-5.5-5.5-1.1-1.1c-1.5-1.5-4-1.5-5.5 0zM62.2 17.3c-1.5 1.5-1.5 4 0 5.5l1.1 1.1-1.1 1.1c-1.5 1.5-1.5 4 0 5.5s4 1.5 5.5 0l1.1-1.1 5.5-5.5-5.5-5.5-1.1-1.1c-1.6-1.5-4-1.5-5.5 0z"/>
</svg>
